<?xml version="1.0" standalone="no"?>
<!DOCTYPE svg PUBLIC "-//W3C//DTD SVG 20010904//EN"
 "http://www.w3.org/TR/2001/REC-SVG-20010904/DTD/svg10.dtd">
<svg version="1.0" xmlns="http://www.w3.org/2000/svg"
 width="574.000000pt" height="574.000000pt" viewBox="0 0 574.000000 574.000000"
 preserveAspectRatio="xMidYMid meet">
<metadata>
Created by potrace 1.11, written by Peter Selinger 2001-2013
</metadata>
<g transform="translate(0.000000,574.000000) scale(0.100000,-0.100000)"
fill="#000000" stroke="none">
<path d="M2020 5066 c-483 -87 -917 -402 -1125 -815 -196 -393 -160 -848 98
-1233 l45 -68 -61 -49 c-83 -66 -248 -237 -329 -341 -204 -263 -355 -559 -430
-840 -24 -91 -31 -143 -35 -251 -3 -75 -2 -162 2 -194 l7 -59 29 114 c98 383
264 746 529 1161 50 78 100 159 110 179 24 48 102 134 146 161 l35 21 49 -30
c27 -17 116 -80 198 -140 237 -176 348 -237 518 -288 83 -24 102 -26 276 -25
103 0 199 -4 213 -9 37 -14 32 -49 -11 -91 -105 -99 -391 -605 -532 -944 -94
-224 -115 -291 -103 -327 24 -69 14 -104 -56 -182 -40 -45 -43 -52 -43 -104
l0 -55 108 8 c165 12 248 10 2307 -45 418 -12 924 -23 1125 -24 309 -3 371 -6
404 -20 22 -9 41 -14 43 -12 8 8 -47 313 -82 455 -131 534 -349 953 -711 1372
-13 14 -8 25 32 85 88 131 150 281 185 445 31 145 31 371 1 515 -60 283 -192
534 -384 734 -345 359 -816 498 -1268 375 -30 -8 -57 -11 -61 -7 -3 4 -27 35
-52 68 -117 155 -307 307 -477 380 -152 66 -252 86 -450 90 -117 2 -200 -1
-250 -10z m353 -131 c173 -30 335 -96 482 -195 39 -26 95 -63 127 -83 65 -42
102 -86 117 -141 6 -22 9 -41 8 -42 -1 -1 -36 -18 -77 -39 -319 -158 -587
-465 -700 -802 -48 -144 -60 -218 -67 -389 -6 -171 2 -256 39 -421 12 -51 18
-96 14 -100 -12 -12 -241 -4 -351 13 -367 55 -662 205 -841 429 -120 149 -181
313 -204 552 -60 597 358 1099 1015 1217 107 19 331 20 438 1z m1120 -532 c-7
-2 -21 -2 -30 0 -10 3 -4 5 12 5 17 0 24 -2 18 -5z m205 0 c-10 -2 -26 -2 -35
0 -10 3 -2 5 17 5 19 0 27 -2 18 -5z m-277 -13 c25 0 -15 -26 -227 -150 -248
-146 -353 -219 -458 -319 -45 -44 -67 -59 -64 -46 2 11 9 19 14 18 5 -1 10 6
11 15 3 32 9 52 22 65 10 10 10 6 1 -17 -6 -16 -9 -30 -8 -32 2 -1 33 22 68
53 86 74 227 167 445 293 98 57 173 106 167 108 -7 2 -12 8 -12 14 0 6 7 7 16
4 9 -3 20 -6 25 -6z m386 4 c-3 -3 -12 -4 -19 -1 -8 3 -5 6 6 6 11 1 17 -2 13
-5z m-442 -14 c4 -6 -6 -10 -22 -9 -25 0 -26 1 -8 9 11 5 21 9 22 9 1 1 5 -3
8 -9z m766 -67 c13 -16 12 -17 -3 -4 -17 13 -22 21 -14 21 2 0 10 -8 17 -17z
m-473 -50 c-10 -2 -26 -2 -35 0 -10 3 -2 5 17 5 19 0 27 -2 18 -5z m210 0
c-10 -2 -28 -2 -40 0 -13 2 -5 4 17 4 22 1 32 -1 23 -4z m-305 -10 c-7 -2 -19
-2 -25 0 -7 3 -2 5 12 5 14 0 19 -2 13 -5z m390 0 c-7 -2 -19 -2 -25 0 -7 3
-2 5 12 5 14 0 19 -2 13 -5z m-446 -9 c-3 -3 -12 -4 -19 -1 -8 3 -5 6 6 6 11
1 17 -2 13 -5z m688 -43 c-3 -6 -14 -10 -23 -10 -15 1 -15 2 1 6 9 2 17 9 17
15 0 6 3 9 6 5 3 -3 3 -10 -1 -16z m-1275 -5 c0 -2 -8 -10 -17 -17 -16 -13
-17 -12 -4 4 13 16 21 21 21 13z m370 -16 c-8 -5 -19 -10 -25 -10 -5 0 -3 5 5
10 8 5 20 10 25 10 6 0 3 -5 -5 -10z m-430 -33 c0 -2 -10 -12 -22 -23 l-23
-19 19 23 c18 21 26 27 26 19z m290 -32 c0 -2 -10 -9 -22 -15 -22 -11 -22 -10
-4 4 21 17 26 19 26 11z m-350 -39 c0 -2 -8 -10 -17 -17 -16 -13 -17 -12 -4 4
13 16 21 21 21 13z m210 -50 c0 -2 -8 -10 -17 -17 -16 -13 -17 -12 -4 4 13 16
21 21 21 13z m-50 -39 c0 -2 -10 -12 -22 -23 l-23 -19 19 23 c18 21 26 27 26
19z m-280 -51 c0 -2 -8 -10 -17 -17 -16 -13 -17 -12 -4 4 13 16 21 21 21 13z
m210 -9 c0 -1 -24 -25 -52 -52 l-53 -50 50 53 c46 48 55 57 55 49z m-290 -71
c0 -2 -8 -10 -17 -17 -16 -13 -17 -12 -4 4 13 16 21 21 21 13z m180 -49 c0 -2
-15 -16 -32 -33 l-33 -29 29 33 c28 30 36 37 36 29z m-60 -71 c0 -2 -8 -10
-17 -17 -16 -13 -17 -12 -4 4 13 16 21 21 21 13z m-60 -80 c0 -2 -8 -10 -17
-17 -16 -13 -17 -12 -4 4 13 16 21 21 21 13z m-100 -146 c-6 -11 -13 -20 -16
-20 -2 0 0 9 6 20 6 11 13 20 16 20 2 0 0 -9 -6 -20z m-30 -50 c-6 -11 -13
-20 -16 -20 -2 0 0 9 6 20 6 11 13 20 16 20 2 0 0 -9 -6 -20z m-93 -22 c-3 -8
-6 -5 -6 6 -1 11 2 17 5 13 3 -3 4 -12 1 -19z m48 -58 c-9 -16 -18 -30 -21
-30 -2 0 2 14 11 30 9 17 18 30 21 30 2 0 -2 -13 -11 -30z m-41 -75 c-4 -8 -8
-15 -10 -15 -2 0 -4 7 -4 15 0 8 4 15 10 15 5 0 7 -7 4 -15z m116 -998 c0 -2
-17 -19 -37 -38 l-38 -34 34 38 c33 34 41 42 41 34z m-130 -132 c-24 -25 -46
-45 -49 -45 -3 0 15 20 39 45 24 25 46 45 49 45 3 0 -15 -20 -39 -45z m-70
-78 c0 -2 -10 -12 -22 -23 l-23 -19 19 23 c18 21 26 27 26 19z m-50 -61 c0 -2
-8 -10 -17 -17 -16 -13 -17 -12 -4 4 13 16 21 21 21 13z m240 -16 c-6 -11 -13
-20 -16 -20 -2 0 0 9 6 20 6 11 13 20 16 20 2 0 0 -9 -6 -20z m-100 -154 c0
-2 -8 -10 -17 -17 -16 -13 -17 -12 -4 4 13 16 21 21 21 13z m-50 -70 c0 -2 -8
-10 -17 -17 -16 -13 -17 -12 -4 4 13 16 21 21 21 13z m-50 -70 c0 -2 -8 -10
-17 -17 -16 -13 -17 -12 -4 4 13 16 21 21 21 13z m-30 -40 c0 -2 -8 -10 -17
-17 -16 -13 -17 -12 -4 4 13 16 21 21 21 13z m-50 -70 c0 -2 -8 -10 -17 -17
-16 -13 -17 -12 -4 4 13 16 21 21 21 13z m-50 -70 c0 -2 -8 -10 -17 -17 -16
-13 -17 -12 -4 4 13 16 21 21 21 13z m-140 -206 c-6 -11 -13 -20 -16 -20 -2 0
0 9 6 20 6 11 13 20 16 20 2 0 0 -9 -6 -20z m-30 -50 c-6 -11 -13 -20 -16 -20
-2 0 0 9 6 20 6 11 13 20 16 20 2 0 0 -9 -6 -20z m-40 -70 c-6 -11 -13 -20
-16 -20 -2 0 0 9 6 20 6 11 13 20 16 20 2 0 0 -9 -6 -20z m-109 -227 c-12 -20
-14 -14 -5 12 4 9 9 14 11 11 3 -2 0 -13 -6 -23z m-54 -175 c-3 -8 -6 -5 -6 6
-1 11 2 17 5 13 3 -3 4 -12 1 -19z m-10 -50 c-3 -8 -6 -5 -6 6 -1 11 2 17 5
13 3 -3 4 -12 1 -19z m-10 -60 c-3 -7 -5 -2 -5 12 0 14 2 19 5 13 2 -7 2 -19
0 -25z"/>
</g>
</svg>
